# xmcd
#
# Track frame offsets: 
#        150
#        52558
#        111976
#        161259
#
# Disc length: 3051 seconds
#
# Revision: 0
# Processed by: cddbd v1.4PL0 Copyright (c) Steve Scherf et al.
# Submitted via: ExactAudioCopy v0.90b4
#
DISCID=220be904
DTITLE=Allman Brothers Band - Live At Red Rocks 2003 [CD2]
DYEAR=2003
DGENRE=Blues
TTITLE0=Forty-Four Blues
TTITLE1=Dreams
TTITLE2=Southbound
TTITLE3=Whipping Post
EXTD=
EXTT0=
EXTT1=
EXTT2=
EXTT3=
PLAYORDER=
